<svg xmlns="http://www.w3.org/2000/svg" viewBox="0 0 94.39 94.39"><defs><style>.cls-1{fill:#981e32;}</style></defs><g id="Layer_2" data-name="Layer 2"><g id="Layer_1-2" data-name="Layer 1"><path class="cls-1" d="M87.4,0H7A6.89,6.89,0,0,0,0,6.8V87.58a6.9,6.9,0,0,0,7,6.81H87.4a6.92,6.92,0,0,0,7-6.81V6.8A6.91,6.91,0,0,0,87.4,0ZM28,80.43H14v-45H28Zm-7-51.2a8.12,8.12,0,1,1,8.11-8.12A8.12,8.12,0,0,1,21,29.23Zm59.43,51.2h-14V58.52c0-5.22-.1-11.94-7.27-11.94s-8.41,5.69-8.41,11.57V80.43h-14v-45H50.2v6.15h.19c1.87-3.54,6.44-7.27,13.25-7.27,14.17,0,16.79,9.33,16.79,21.45Z"/></g></g></svg>