<svg id="facebook" data-name="facebook icon" xmlns="http://www.w3.org/2000/svg" width="160" height="24.908" viewBox="0 0 160 24.908">
<g id="Group_32" data-name="Group 32" transform="translate(26.457 2.372)">
    <g id="Group_31" data-name="Group 31">
      <g id="Group_30" data-name="Group 30">
        <path id="Path_347" data-name="Path 347" d="M186.3,7243.484a5.758,5.758,0,1,0,5.759,5.758A5.764,5.764,0,0,0,186.3,7243.484Zm0,9.456a3.7,3.7,0,1,1,3.7-3.7A3.7,3.7,0,0,1,186.3,7252.94Z" transform="translate(-175.113 -7238.115)" fill="#fff"/>
        <ellipse id="Ellipse_3" data-name="Ellipse 3" cx="1.307" cy="1.307" rx="1.307" ry="1.307" transform="translate(15.857 3.921)" fill="#fff"/>
        <path id="Path_348" data-name="Path 348" d="M196.707,7240.953a6.5,6.5,0,0,0-4.74-1.831h-9.294a6.194,6.194,0,0,0-6.543,6.543v9.244a6.532,6.532,0,0,0,1.883,4.819,6.6,6.6,0,0,0,4.711,1.774h9.191a6.622,6.622,0,0,0,4.751-1.771,6.478,6.478,0,0,0,1.845-4.772v-9.294A6.518,6.518,0,0,0,196.707,7240.953Zm-.256,14.006a4.475,4.475,0,0,1-1.223,3.3,4.617,4.617,0,0,1-3.312,1.185h-9.191a4.583,4.583,0,0,1-3.276-1.193,4.518,4.518,0,0,1-1.259-3.34v-9.244a4.15,4.15,0,0,1,4.484-4.483h9.294a4.185,4.185,0,0,1,4.484,4.483Z" transform="translate(-176.131 -7239.122)" fill="#fff"/>
      </g>
    </g>
  </g>
</svg>