<svg id="Social_Media_Icons" data-name="Social Media Icons" xmlns="http://www.w3.org/2000/svg" width="160" height="24.908" viewBox="0 0 160 24.908">
  <g id="Group_32" data-name="Group 32" transform="translate(26.457 2.372)">
    <g id="Group_31" data-name="Group 31">
      <g id="Group_30" data-name="Group 30">
        <path id="Path_347" data-name="Path 347" d="M186.3,7243.484a5.758,5.758,0,1,0,5.759,5.758A5.764,5.764,0,0,0,186.3,7243.484Zm0,9.456a3.7,3.7,0,1,1,3.7-3.7A3.7,3.7,0,0,1,186.3,7252.94Z" transform="translate(-175.113 -7238.115)" fill="#fff"/>
        <ellipse id="Ellipse_3" data-name="Ellipse 3" cx="1.307" cy="1.307" rx="1.307" ry="1.307" transform="translate(15.857 3.921)" fill="#fff"/>
        <path id="Path_348" data-name="Path 348" d="M196.707,7240.953a6.5,6.5,0,0,0-4.74-1.831h-9.294a6.194,6.194,0,0,0-6.543,6.543v9.244a6.532,6.532,0,0,0,1.883,4.819,6.6,6.6,0,0,0,4.711,1.774h9.191a6.622,6.622,0,0,0,4.751-1.771,6.478,6.478,0,0,0,1.845-4.772v-9.294A6.518,6.518,0,0,0,196.707,7240.953Zm-.256,14.006a4.475,4.475,0,0,1-1.223,3.3,4.617,4.617,0,0,1-3.312,1.185h-9.191a4.583,4.583,0,0,1-3.276-1.193,4.518,4.518,0,0,1-1.259-3.34v-9.244a4.15,4.15,0,0,1,4.484-4.483h9.294a4.185,4.185,0,0,1,4.484,4.483Z" transform="translate(-176.131 -7239.122)" fill="#fff"/>
      </g>
    </g>
  </g>
  <g id="Group_34" data-name="Group 34" transform="translate(0 2.217)">
    <g id="Group_33" data-name="Group 33">
      <path id="Path_349" data-name="Path 349" d="M162.16,7246.343h-3.591v-2.356a.958.958,0,0,1,1-1.089H162.1v-3.888l-3.489-.014c-3.874,0-4.757,2.9-4.757,4.755v2.592h-2.24v4.006h2.24v11.337h4.714V7250.35h3.179Z" transform="translate(-151.615 -7238.996)" fill="#fff"/>
    </g>
  </g>
  <g id="Group_37" data-name="Group 37" transform="translate(63.405 5.267)">
    <g id="Group_36" data-name="Group 36">
      <g id="JNa3HG">
        <g id="Group_35" data-name="Group 35">
          <path id="Path_350" data-name="Path 350" d="M210.266,7256.177a8.465,8.465,0,0,0,6.139-1.712,1.3,1.3,0,0,0-.305-.034,4.2,4.2,0,0,1-3.54-2.775l0-.016c0-.032-.041-.065-.01-.094s.06,0,.09,0a4.658,4.658,0,0,0,.849.049,4.322,4.322,0,0,0,.812-.111c.015,0,.032,0,.044-.021-.018-.022-.047-.02-.07-.025a4.209,4.209,0,0,1-3.057-2.933,3.96,3.96,0,0,1-.158-1.107c0-.1.009-.1.091-.056a4.246,4.246,0,0,0,1.581.467c.039,0,.079,0,.118,0a.349.349,0,0,0,.037,0c-.014-.037-.043-.049-.066-.067a4.177,4.177,0,0,1-1.7-2.94,4.217,4.217,0,0,1,.294-2.066,4.04,4.04,0,0,1,.21-.433c.033-.061.057-.054.1-.006a11.762,11.762,0,0,0,.8.881,11.947,11.947,0,0,0,3.948,2.6,11.927,11.927,0,0,0,2.906.754c.277.037.555.057.833.077.068.005.059-.03.052-.073a5.2,5.2,0,0,1-.085-.7,3.661,3.661,0,0,1,.027-.678,4.077,4.077,0,0,1,.706-1.865,4.169,4.169,0,0,1,1.73-1.447,3.927,3.927,0,0,1,1.275-.345,4.139,4.139,0,0,1,2.767.678,4.4,4.4,0,0,1,.676.557.15.15,0,0,0,.155.044,8.418,8.418,0,0,0,1.852-.624c.223-.105.437-.224.651-.342.015-.009.031-.029.048-.011s0,.035-.006.051a4.214,4.214,0,0,1-.588,1.132,4.272,4.272,0,0,1-1.088,1.036.141.141,0,0,0-.071.064,8.248,8.248,0,0,0,2.3-.635c.022.022.009.036,0,.047a8.375,8.375,0,0,1-.788,1,8.653,8.653,0,0,1-1.211,1.084.127.127,0,0,0-.053.126c.012.292.012.584,0,.876-.01.24-.028.478-.05.718s-.05.455-.087.68a11.412,11.412,0,0,1-.262,1.219,12.633,12.633,0,0,1-.785,2.133,12.089,12.089,0,0,1-2.223,3.235,11.267,11.267,0,0,1-1.951,1.624,11.079,11.079,0,0,1-1.813.962,11.464,11.464,0,0,1-2,.629,12.883,12.883,0,0,1-3.218.276,11.448,11.448,0,0,1-2.071-.27,11.966,11.966,0,0,1-2.456-.835,12.293,12.293,0,0,1-1.3-.709c-.022-.014-.042-.029-.063-.045Z" transform="translate(-210.264 -7241.474)" fill="#fff"/>
        </g>
      </g>
    </g>
  </g>
  <g id="Group_38" data-name="Group 38" transform="translate(98.124)">
    <path id="Path_351" data-name="Path 351" d="M263.694,7258.468h-4.523v-.705c0-2.285.027-4.57-.015-6.854a8.517,8.517,0,0,0-.329-2.244,2.109,2.109,0,0,0-2.228-1.571,2.282,2.282,0,0,0-2.454,1.457,7.763,7.763,0,0,0-.384,2.29c-.048,2.323-.017,4.649-.017,6.976v.633h-4.388v-15.058h4.155v1.854a4.935,4.935,0,0,1,3.029-1.746,8.349,8.349,0,0,1,3.986.188,4.234,4.234,0,0,1,2.972,3.724,15.566,15.566,0,0,1,.212,2.392c.026,2.746.01,5.494.009,8.24C263.719,7258.16,263.706,7258.278,263.694,7258.468Z" transform="translate(-241.004 -7235.776)" fill="#fff"/>
    <path id="Path_352" data-name="Path 352" d="M247.827,7243.38v15.062H242.61V7243.38Z" transform="translate(-242.561 -7235.768)" fill="#fff"/>
    <path id="Path_353" data-name="Path 353" d="M245.155,7242.488a2.61,2.61,0,0,1-2.585-2.677,2.645,2.645,0,1,1,2.585,2.677Z" transform="translate(-242.57 -7237.195)" fill="#fff"/>
  </g>
  <path id="Path_354" data-name="Path 354" d="M301.727,7244.411c-.352-2.322-1.362-3.2-3.687-3.347a143.78,143.78,0,0,0-17.831.016,3.077,3.077,0,0,0-3.2,2.7,31.6,31.6,0,0,0-.123,11.653,3.133,3.133,0,0,0,3.335,3.028c2.966.19,5.937.3,8.905.443l0-.1c.325,0,.649.012.972,0,2.874-.129,5.752-.193,8.619-.421,1.785-.141,2.564-.934,2.9-2.7A33.258,33.258,0,0,0,301.727,7244.411Zm-15.583,9.249V7245.4l7.946,4.14Z" transform="translate(-142.153 -7236.364)" fill="#fff"/>
</svg>
