<svg id="Logo_50px" data-name="Logo 50px" xmlns="http://www.w3.org/2000/svg" width="133.385" height="50" viewBox="0 0 133.385 50">
  <g id="Group_64" data-name="Group 64" transform="translate(-216.035 -178.753)">
    <rect id="Rectangle_42" data-name="Rectangle 42" width="2.273" height="5" transform="translate(235.792 212.844)" fill="#fff"/>
    <path id="Path_400" data-name="Path 400" d="M238.065,206.253a1.136,1.136,0,0,0-2.273,0v4.319h2.273Z" fill="#fff"/>
    <rect id="Rectangle_43" data-name="Rectangle 43" width="2.273" height="5" transform="translate(239.883 212.844)" fill="#fff"/>
    <path id="Path_401" data-name="Path 401" d="M242.156,206.253a1.137,1.137,0,0,0-2.273,0v4.319h2.273Z" fill="#fff"/>
    <path id="Path_402" data-name="Path 402" d="M246.247,206.253a1.136,1.136,0,0,0-2.273,0v4.319h2.273Z" fill="#fff"/>
    <rect id="Rectangle_44" data-name="Rectangle 44" width="2.273" height="5" transform="translate(243.974 212.844)" fill="#fff"/>
    <path id="Path_403" data-name="Path 403" d="M241.035,180.572a23.181,23.181,0,1,0,23.182,23.181A23.181,23.181,0,0,0,241.035,180.572Zm-1.267,8.9a7.715,7.715,0,0,0,.813-3.445v-1.538a.681.681,0,1,1,.909,0v1.538a7.7,7.7,0,0,0,.813,3.445l.1.191h-2.727Zm-6.876.773a13.1,13.1,0,0,0-3.009,2.389c.224-.15.515-.142.752-.272s.435-.362.688-.5a1.319,1.319,0,0,1,1.488,0c-.505.321-.833.875-1.355,1.165a2.175,2.175,0,0,1-1.835-.112,15.441,15.441,0,0,0-2.273,3.35c.24-.255.577-.362.807-.635.208-.247.349-.531.581-.762a1.748,1.748,0,0,1,1.868-.551c-.5.567-.741,1.34-1.29,1.86a2.785,2.785,0,0,1-2.175.517,16.862,16.862,0,0,0-1.33,4.19,7,7,0,0,0,.679-1.053,4.559,4.559,0,0,1,.45-1.059,1.861,1.861,0,0,1,1.689-.947,14.071,14.071,0,0,1-.914,2.536,3.245,3.245,0,0,1-1.992,1.071,16.345,16.345,0,0,0-.056,4.267,8.359,8.359,0,0,0,.341-1.069,6.5,6.5,0,0,1,.16-1.415,1.976,1.976,0,0,1,1.462-1.446c-.172,1,.165,2.093-.279,3.037a3.753,3.753,0,0,1-1.6,1.5,15.414,15.414,0,0,0,1.37,4.338c-.108-.4-.005-.831-.089-1.241a7.487,7.487,0,0,1-.317-1.506,2.05,2.05,0,0,1,1.021-1.929,21.691,21.691,0,0,1,.68,2.736,3.64,3.64,0,0,1-1.076,2.374,16.192,16.192,0,0,0,2.509,3.492,3.837,3.837,0,0,0-.379-1.029,4.513,4.513,0,0,1-.734-1.353,1.876,1.876,0,0,1,.37-1.823l.1.193c.446.832,1.284,1.432,1.49,2.393a3.616,3.616,0,0,1-.355,2.123,17.675,17.675,0,0,0,1.6,1.379v.952a19.029,19.029,0,0,1-2.741-2.459,2.65,2.65,0,0,1-3.07-.634,11.939,11.939,0,0,1-1.495-2.721,3.213,3.213,0,0,1,2.262,1.257c.314.337.548.752.881,1.068a6.271,6.271,0,0,0,1.03.586,16.526,16.526,0,0,1-2.5-3.944,2.77,2.77,0,0,1-2.826-1.617,10.346,10.346,0,0,1-.564-3.294,3.429,3.429,0,0,1,1.8,2.041c.184.422.275.881.472,1.3.214.452.613.673.9,1.062a16.153,16.153,0,0,1-1.114-4.536,2.678,2.678,0,0,1-2.067-2.085,9.914,9.914,0,0,1,.4-3.329,3.176,3.176,0,0,1,1.068,2.355c.047.432-.009.87.048,1.3a8.286,8.286,0,0,0,.513,1.257,17.136,17.136,0,0,1,.317-4.565,2.541,2.541,0,0,1-1.321-2.314,8.266,8.266,0,0,1,1.229-2.96,2.793,2.793,0,0,1,.378,2.233c-.075.494-.306.976-.336,1.473-.024.388.151.74.148,1.126a17.391,17.391,0,0,1,1.66-4.375,2.3,2.3,0,0,1-.537-2.392,8.355,8.355,0,0,1,1.84-2.207,2.62,2.62,0,0,1-.349,2.191,7.284,7.284,0,0,0-.609,1.075c-.1.322-.033.662-.147.983a15.7,15.7,0,0,1,2.624-3.4,1.784,1.784,0,0,1,.272-2.132,9.948,9.948,0,0,1,1.769-1.087,1.841,1.841,0,0,1-.659,1.468,10.308,10.308,0,0,0-.759.716c-.187.248-.185.574-.391.812a13.671,13.671,0,0,1,2.556-1.879,2.734,2.734,0,0,1,3.412-1.026A4.017,4.017,0,0,1,232.892,190.244Zm14.961,30.83a18.236,18.236,0,0,1-13.636-.013V203.526h13.636Zm0-18.23H234.217v-.909h13.636Zm-13.636-1.818c0-3.331,1.874-6.16,4.455-8.212a3.433,3.433,0,0,0,1-2.242H242.4a3.433,3.433,0,0,0,1,2.242c2.581,2.052,4.454,4.881,4.454,8.212Zm22.435,8.677c.162-.366.281-.742.465-1.1a3.427,3.427,0,0,1,1.9-1.912,11.728,11.728,0,0,1-.705,3.16,2.761,2.761,0,0,1-2.912,1.583,16.972,16.972,0,0,1-2.6,3.685,2.912,2.912,0,0,0,1-.551c.3-.292.541-.642.848-.932a3.205,3.205,0,0,1,2.308-1.1l-.14.256a7.711,7.711,0,0,1-1.839,2.672,2.638,2.638,0,0,1-2.691.192,19.157,19.157,0,0,1-2.163,1.838v-.935a18.088,18.088,0,0,0,2.25-2.052,3.562,3.562,0,0,1-.459-2.376,14.181,14.181,0,0,1,1.4-2.453,1.971,1.971,0,0,1,.409,2.048,6.8,6.8,0,0,1-.639,1.219,11.565,11.565,0,0,0-.335,1.137,15.83,15.83,0,0,0,2.419-3.776,3.834,3.834,0,0,1-1.261-2.208c-.084-.989.453-1.913.519-2.891a2.1,2.1,0,0,1,1.134,1.983,13.022,13.022,0,0,1-.239,1.488c-.035.385.1.755.06,1.138a15.48,15.48,0,0,0,1.092-4.356,3.709,3.709,0,0,1-1.774-1.536c-.429-.9-.208-1.972-.4-2.926a2.032,2.032,0,0,1,1.591,1.513c.155.47.1.945.214,1.418.087.37.342.672.409,1.047a16.577,16.577,0,0,0-.284-4.406,3.431,3.431,0,0,1-2.021-.9c-.63-.707-.67-1.745-1.111-2.557a1.846,1.846,0,0,1,1.73.846,6.917,6.917,0,0,1,.578,1.2c.186.375.564.6.732.982a16.8,16.8,0,0,0-1.584-4.238,2.915,2.915,0,0,1-2.152-.334c-.623-.469-.926-1.273-1.465-1.832a1.723,1.723,0,0,1,1.894.436c.275.244.442.576.71.82.251.228.6.306.823.571a15.152,15.152,0,0,0-2.515-3.29,2.109,2.109,0,0,1-1.923.188c-.489-.274-.85-.732-1.336-1.018a1.309,1.309,0,0,1,1.48-.1c.269.121.476.347.741.464s.567.077.816.252a13.091,13.091,0,0,0-2.446-1.817,4.021,4.021,0,0,1-3.153-1.487,2.735,2.735,0,0,1,3.41,1.021,13.643,13.643,0,0,1,3.16,2.463c-.168-.278-.156-.586-.354-.852s-.509-.5-.724-.778a1.74,1.74,0,0,1-.471-1.4,8.18,8.18,0,0,1,1.752,1.27,1.8,1.8,0,0,1,.073,2.056,16.021,16.021,0,0,1,2.391,3.459,6.3,6.3,0,0,0-.129-1.076c-.128-.324-.346-.612-.489-.931a2.66,2.66,0,0,1-.21-2.193,11.058,11.058,0,0,1,1.545,1.955,2.241,2.241,0,0,1-.5,2.688,17.477,17.477,0,0,1,1.42,4.338,5.021,5.021,0,0,0,.186-1.134c-.044-.485-.22-.948-.258-1.44a2.7,2.7,0,0,1,.506-2.1,8.6,8.6,0,0,1,1.067,3.019,2.505,2.505,0,0,1-1.4,2.221,17.013,17.013,0,0,1,.1,4.446,3.639,3.639,0,0,0,.535-1.2c.05-.386.038-.775.1-1.161a3.2,3.2,0,0,1,1.193-2.3,9.108,9.108,0,0,1,.219,3.349,2.637,2.637,0,0,1-2.131,1.955,16.172,16.172,0,0,1-1.4,4.557A6,6,0,0,0,256.652,209.7Z" fill="#fff"/>
    <path id="Path_404" data-name="Path 404" d="M241.035,178.753a25,25,0,1,0,25,25A25,25,0,0,0,241.035,178.753Zm0,49.091a24.091,24.091,0,1,1,24.091-24.091A24.091,24.091,0,0,1,241.035,227.844Z" fill="#fff"/>
  </g>
  <g id="Group_65" data-name="Group 65" transform="translate(-216.035 -178.753)">
    <path id="Path_405" data-name="Path 405" d="M278.574,194.662a5.278,5.278,0,0,1-1.016-.1,5.863,5.863,0,0,1-.939-.259,4.717,4.717,0,0,1-.809-.382,3.484,3.484,0,0,1-.628-.466.148.148,0,0,1-.013-.22l.984-1.127c.052-.069.116-.073.194-.013a5.366,5.366,0,0,0,1.023.629,2.943,2.943,0,0,0,1.282.278,1.693,1.693,0,0,0,1.069-.292.922.922,0,0,0,.369-.757.8.8,0,0,0-.285-.634,2.14,2.14,0,0,0-1.075-.35l-.466-.065a3.8,3.8,0,0,1-2.066-.822,2.313,2.313,0,0,1-.719-1.82,2.712,2.712,0,0,1,.221-1.107,2.347,2.347,0,0,1,.628-.848,2.926,2.926,0,0,1,.984-.544,4,4,0,0,1,1.288-.194,5.464,5.464,0,0,1,1.658.246,4.308,4.308,0,0,1,1.334.673.117.117,0,0,1,.026.194l-.79,1.179a.123.123,0,0,1-.182.039,4.253,4.253,0,0,0-1-.505,3.247,3.247,0,0,0-1.043-.169,1.265,1.265,0,0,0-.88.272.888.888,0,0,0-.3.687.765.765,0,0,0,.3.621,2.237,2.237,0,0,0,1.069.35l.466.065a3.714,3.714,0,0,1,2.072.822,2.377,2.377,0,0,1,.7,1.845,2.766,2.766,0,0,1-.22,1.107,2.376,2.376,0,0,1-.654.881,3.109,3.109,0,0,1-1.081.576A4.946,4.946,0,0,1,278.574,194.662Z" fill="#fff"/>
    <path id="Path_406" data-name="Path 406" d="M287.186,194.662a3.76,3.76,0,0,1-2.014-.53,2.788,2.788,0,0,1-1.2-1.606,4.4,4.4,0,0,1-.123-.453,4.623,4.623,0,0,1-.071-.493q-.025-.271-.039-.621c-.008-.233-.013-.514-.013-.842s.005-.608.013-.842.022-.44.039-.621a4.6,4.6,0,0,1,.071-.492,4.347,4.347,0,0,1,.123-.454,2.814,2.814,0,0,1,1.2-1.6,4.045,4.045,0,0,1,4.028,0,2.814,2.814,0,0,1,1.2,1.6,4.355,4.355,0,0,1,.123.454,4.6,4.6,0,0,1,.071.492q.025.271.039.621c.008.234.013.514.013.842s-.005.609-.013.842-.022.44-.039.621a4.623,4.623,0,0,1-.071.493,4.407,4.407,0,0,1-.123.453,2.788,2.788,0,0,1-1.2,1.606A3.76,3.76,0,0,1,287.186,194.662Zm0-1.683a1.462,1.462,0,0,0,.894-.259,1.37,1.37,0,0,0,.492-.712,1.793,1.793,0,0,0,.064-.266c.018-.1.033-.22.046-.362s.021-.318.026-.525.006-.453.006-.738,0-.531-.006-.738-.013-.382-.026-.524-.028-.264-.046-.363a1.824,1.824,0,0,0-.064-.266,1.37,1.37,0,0,0-.492-.712,1.672,1.672,0,0,0-1.788,0,1.37,1.37,0,0,0-.492.712,1.824,1.824,0,0,0-.064.266c-.018.1-.033.22-.046.363s-.021.317-.026.524-.006.453-.006.738,0,.531.006.738.013.382.026.525.028.263.046.362a1.793,1.793,0,0,0,.064.266,1.37,1.37,0,0,0,.492.712A1.462,1.462,0,0,0,287.186,192.979Z" fill="#fff"/>
    <path id="Path_407" data-name="Path 407" d="M296.083,194.662a4.037,4.037,0,0,1-1.36-.22,2.933,2.933,0,0,1-1.069-.647,2.967,2.967,0,0,1-.7-1.062,3.907,3.907,0,0,1-.252-1.45v-5.439a.114.114,0,0,1,.129-.13h1.645a.114.114,0,0,1,.129.13v5.49a1.711,1.711,0,0,0,.4,1.218,1.4,1.4,0,0,0,1.075.427,1.386,1.386,0,0,0,1.061-.427,1.711,1.711,0,0,0,.4-1.218v-5.49a.114.114,0,0,1,.129-.13h1.645a.115.115,0,0,1,.13.13v5.439a3.907,3.907,0,0,1-.253,1.45,2.872,2.872,0,0,1-1.761,1.709A3.984,3.984,0,0,1,296.083,194.662Z" fill="#fff"/>
    <path id="Path_408" data-name="Path 408" d="M303.684,194.52a.114.114,0,0,1-.129-.129v-6.9a.068.068,0,0,0-.078-.077H301.25a.115.115,0,0,1-.13-.13v-1.437a.115.115,0,0,1,.13-.13h6.513a.115.115,0,0,1,.13.13v1.437a.115.115,0,0,1-.13.13h-2.227a.068.068,0,0,0-.078.077v6.9a.114.114,0,0,1-.129.129Z" fill="#fff"/>
    <path id="Path_409" data-name="Path 409" d="M309.6,185.844a.115.115,0,0,1,.13-.13h1.644a.115.115,0,0,1,.13.13v3.314a.069.069,0,0,0,.078.079h2.874a.069.069,0,0,0,.078-.079v-3.314a.115.115,0,0,1,.13-.13h1.644a.115.115,0,0,1,.13.13v8.547a.114.114,0,0,1-.13.129h-1.644a.114.114,0,0,1-.13-.129V191a.069.069,0,0,0-.078-.078h-2.874a.069.069,0,0,0-.078.078v3.393a.114.114,0,0,1-.13.129h-1.644a.114.114,0,0,1-.13-.129Z" fill="#fff"/>
    <path id="Path_410" data-name="Path 410" d="M318.771,185.844a.114.114,0,0,1,.129-.13h5.646a.115.115,0,0,1,.13.13v1.385a.115.115,0,0,1-.13.13h-3.794a.069.069,0,0,0-.078.077v1.749a.068.068,0,0,0,.078.077h3.16a.115.115,0,0,1,.129.13v1.372a.114.114,0,0,1-.129.13h-3.16a.069.069,0,0,0-.078.078V192.8a.068.068,0,0,0,.078.077h3.794a.115.115,0,0,1,.13.13v1.386a.114.114,0,0,1-.13.129H318.9a.114.114,0,0,1-.129-.129Z" fill="#fff"/>
    <path id="Path_411" data-name="Path 411" d="M331.6,194.52a.191.191,0,0,1-.194-.129l-1.515-3.225h-1.179a.068.068,0,0,0-.077.078v3.147a.115.115,0,0,1-.13.129h-1.645a.114.114,0,0,1-.129-.129v-8.547a.114.114,0,0,1,.129-.13h3.51a3.551,3.551,0,0,1,1.224.2,2.824,2.824,0,0,1,.945.563,2.481,2.481,0,0,1,.609.868,2.8,2.8,0,0,1,.213,1.1,2.666,2.666,0,0,1-.414,1.49,2.58,2.58,0,0,1-1.153.958l1.736,3.471a.124.124,0,0,1,0,.11.1.1,0,0,1-.091.045Zm-1.334-4.973a1.23,1.23,0,0,0,.868-.3,1.04,1.04,0,0,0,.324-.8,1.024,1.024,0,0,0-.324-.789,1.23,1.23,0,0,0-.868-.3h-1.554a.068.068,0,0,0-.077.077v2.034a.068.068,0,0,0,.077.077Z" fill="#fff"/>
    <path id="Path_412" data-name="Path 412" d="M335.463,185.844a.114.114,0,0,1,.129-.13h1.555a.244.244,0,0,1,.22.13l3.108,5.542h.064v-5.542a.115.115,0,0,1,.13-.13h1.463a.115.115,0,0,1,.13.13v8.547a.114.114,0,0,1-.13.129h-1.541a.244.244,0,0,1-.22-.129l-3.121-5.53h-.065v5.53a.114.114,0,0,1-.129.129h-1.464a.114.114,0,0,1-.129-.129Z" fill="#fff"/>
  </g>
  <g id="Group_66" data-name="Group 66" transform="translate(-216.035 -178.753)">
    <path id="Path_413" data-name="Path 413" d="M278.1,208.156a.163.163,0,0,1-.169-.129l-2.8-8.534c-.026-.1.013-.142.117-.142h1.683a.162.162,0,0,1,.168.129l1.762,5.776h.038l1.71-5.776a.162.162,0,0,1,.168-.129h1.671c.1,0,.129.047.1.142l-2.8,8.534a.155.155,0,0,1-.155.129Z" fill="#fff"/>
    <path id="Path_414" data-name="Path 414" d="M284.445,199.48a.114.114,0,0,1,.129-.129h1.645a.114.114,0,0,1,.129.129v8.547a.114.114,0,0,1-.129.129h-1.645a.114.114,0,0,1-.129-.129Z" fill="#fff"/>
    <path id="Path_415" data-name="Path 415" d="M293.808,208.156a.193.193,0,0,1-.2-.129L292.1,204.8H290.92a.069.069,0,0,0-.078.078v3.147a.114.114,0,0,1-.129.129h-1.645a.115.115,0,0,1-.13-.129V199.48a.115.115,0,0,1,.13-.129h3.509a3.548,3.548,0,0,1,1.224.2,2.8,2.8,0,0,1,.946.564,2.453,2.453,0,0,1,.608.867,2.79,2.79,0,0,1,.214,1.1,2.662,2.662,0,0,1-.414,1.489,2.583,2.583,0,0,1-1.153.959l1.735,3.47a.124.124,0,0,1,0,.11.093.093,0,0,1-.09.045Zm-1.334-4.972a1.232,1.232,0,0,0,.867-.3,1.038,1.038,0,0,0,.324-.8,1.023,1.023,0,0,0-.324-.79,1.232,1.232,0,0,0-.867-.3H290.92a.069.069,0,0,0-.078.078v2.033a.069.069,0,0,0,.078.078Z" fill="#fff"/>
    <path id="Path_416" data-name="Path 416" d="M297.939,206.162a3.839,3.839,0,0,1-.123-.453,4.626,4.626,0,0,1-.072-.492q-.025-.273-.038-.622c-.009-.233-.013-.513-.013-.842s0-.608.013-.841.021-.441.038-.622a4.626,4.626,0,0,1,.072-.492,3.839,3.839,0,0,1,.123-.453,2.779,2.779,0,0,1,1.2-1.606,3.811,3.811,0,0,1,2.04-.531,4.107,4.107,0,0,1,1.127.143,3.376,3.376,0,0,1,.9.394,2.847,2.847,0,0,1,.673.6,2.755,2.755,0,0,1,.434.745.129.129,0,0,1-.052.194l-1.385.583c-.095.026-.156,0-.182-.065a1.888,1.888,0,0,0-.615-.68,1.646,1.646,0,0,0-.9-.227,1.479,1.479,0,0,0-.919.266,1.405,1.405,0,0,0-.492.719,1.772,1.772,0,0,0-.065.265c-.018.1-.033.22-.045.363s-.022.315-.026.518-.007.447-.007.731,0,.531.007.739.013.382.026.524.027.263.045.363a1.8,1.8,0,0,0,.065.265,1.353,1.353,0,0,0,.5.712,1.561,1.561,0,0,0,.939.259,1.674,1.674,0,0,0,.881-.233,1.184,1.184,0,0,0,.531-.673,2.224,2.224,0,0,0,.077-.376,3.884,3.884,0,0,0,.026-.492.068.068,0,0,0-.078-.077h-1.191a.115.115,0,0,1-.129-.13v-1.243a.115.115,0,0,1,.129-.13h3.03a.115.115,0,0,1,.13.13v.725a10.945,10.945,0,0,1-.052,1.1,4.318,4.318,0,0,1-.168.88,2.984,2.984,0,0,1-1.185,1.632,3.549,3.549,0,0,1-2.027.57,3.811,3.811,0,0,1-2.04-.531A2.779,2.779,0,0,1,297.939,206.162Z" fill="#fff"/>
    <path id="Path_417" data-name="Path 417" d="M306.965,199.48a.114.114,0,0,1,.129-.129h1.645a.114.114,0,0,1,.129.129v8.547a.114.114,0,0,1-.129.129h-1.645a.114.114,0,0,1-.129-.129Z" fill="#fff"/>
    <path id="Path_418" data-name="Path 418" d="M311.458,199.48a.114.114,0,0,1,.13-.129h1.554a.244.244,0,0,1,.22.129l3.108,5.542h.065V199.48a.114.114,0,0,1,.129-.129h1.464a.114.114,0,0,1,.129.129v8.547a.114.114,0,0,1-.129.129h-1.542a.244.244,0,0,1-.22-.129l-3.121-5.53h-.064v5.53a.115.115,0,0,1-.13.129h-1.463a.114.114,0,0,1-.13-.129Z" fill="#fff"/>
    <path id="Path_419" data-name="Path 419" d="M320.847,199.48a.114.114,0,0,1,.13-.129h1.644a.115.115,0,0,1,.13.129v8.547a.115.115,0,0,1-.13.129h-1.644a.114.114,0,0,1-.13-.129Z" fill="#fff"/>
    <path id="Path_420" data-name="Path 420" d="M327.711,199.48a.161.161,0,0,1,.168-.129h1.632a.162.162,0,0,1,.168.129l2.978,8.547q.039.129-.09.129h-1.684a.162.162,0,0,1-.168-.129l-.505-1.541h-3.082l-.492,1.541a.163.163,0,0,1-.169.129h-1.7c-.087,0-.117-.043-.091-.129Zm1.981,5.387-1-3.082h-.039l-1,3.082Z" fill="#fff"/>
  </g>
  <g id="Group_67" data-name="Group 67" transform="translate(-216.035 -178.753)">
    <path id="Path_421" data-name="Path 421" d="M278.506,221.935a4.046,4.046,0,0,1-1.36-.22,2.861,2.861,0,0,1-1.767-1.709,3.888,3.888,0,0,1-.253-1.451v-5.439a.114.114,0,0,1,.13-.129H276.9a.114.114,0,0,1,.13.129v5.491a1.711,1.711,0,0,0,.4,1.217,1.405,1.405,0,0,0,1.075.428,1.388,1.388,0,0,0,1.062-.428,1.707,1.707,0,0,0,.4-1.217v-5.491a.114.114,0,0,1,.129-.129h1.645a.114.114,0,0,1,.129.129v5.439a3.909,3.909,0,0,1-.252,1.451,2.876,2.876,0,0,1-1.762,1.709A3.984,3.984,0,0,1,278.506,221.935Z" fill="#fff"/>
    <path id="Path_422" data-name="Path 422" d="M284.165,213.116a.114.114,0,0,1,.13-.129h1.554a.244.244,0,0,1,.22.129l3.108,5.543h.065v-5.543a.114.114,0,0,1,.129-.129h1.464a.114.114,0,0,1,.129.129v8.547a.114.114,0,0,1-.129.13h-1.542a.243.243,0,0,1-.22-.13l-3.121-5.529h-.064v5.529a.115.115,0,0,1-.13.13H284.3a.115.115,0,0,1-.13-.13Z" fill="#fff"/>
    <path id="Path_423" data-name="Path 423" d="M293.3,213.116a.114.114,0,0,1,.13-.129h1.644a.115.115,0,0,1,.13.129v8.547a.115.115,0,0,1-.13.13h-1.644a.115.115,0,0,1-.13-.13Z" fill="#fff"/>
    <path id="Path_424" data-name="Path 424" d="M299.8,221.793a.163.163,0,0,1-.169-.13l-2.8-8.534c-.026-.1.013-.142.117-.142h1.683a.163.163,0,0,1,.169.129l1.761,5.776h.039l1.709-5.776a.162.162,0,0,1,.168-.129h1.671c.1,0,.129.047.1.142l-2.8,8.534a.155.155,0,0,1-.155.13Z" fill="#fff"/>
    <path id="Path_425" data-name="Path 425" d="M305.882,213.116a.114.114,0,0,1,.13-.129h5.646a.114.114,0,0,1,.129.129V214.5a.114.114,0,0,1-.129.129h-3.794a.069.069,0,0,0-.078.078v1.748a.069.069,0,0,0,.078.078h3.159a.115.115,0,0,1,.13.13v1.372a.115.115,0,0,1-.13.13h-3.159a.069.069,0,0,0-.078.077v1.827a.069.069,0,0,0,.078.077h3.794a.114.114,0,0,1,.129.13v1.385a.114.114,0,0,1-.129.13h-5.646a.115.115,0,0,1-.13-.13Z" fill="#fff"/>
    <path id="Path_426" data-name="Path 426" d="M318.715,221.793a.192.192,0,0,1-.194-.13l-1.515-3.224h-1.178a.069.069,0,0,0-.078.077v3.147a.115.115,0,0,1-.13.13h-1.644a.115.115,0,0,1-.13-.13v-8.547a.114.114,0,0,1,.13-.129h3.509a3.547,3.547,0,0,1,1.224.2,2.772,2.772,0,0,1,.945.563,2.461,2.461,0,0,1,.609.867,2.807,2.807,0,0,1,.214,1.1,2.659,2.659,0,0,1-.415,1.49,2.572,2.572,0,0,1-1.152.958l1.735,3.471a.122.122,0,0,1,0,.109.094.094,0,0,1-.091.046Zm-1.333-4.973a1.229,1.229,0,0,0,.867-.3,1.036,1.036,0,0,0,.324-.8,1.023,1.023,0,0,0-.324-.79,1.234,1.234,0,0,0-.867-.3h-1.554a.069.069,0,0,0-.078.078v2.033a.069.069,0,0,0,.078.078Z" fill="#fff"/>
    <path id="Path_427" data-name="Path 427" d="M325.54,221.935a5.3,5.3,0,0,1-1.017-.1,6.1,6.1,0,0,1-.938-.259,4.8,4.8,0,0,1-.81-.382,3.521,3.521,0,0,1-.628-.466.149.149,0,0,1-.013-.22l.984-1.127c.052-.069.117-.073.195-.013a5.281,5.281,0,0,0,1.023.628,2.929,2.929,0,0,0,1.282.279,1.688,1.688,0,0,0,1.068-.292.919.919,0,0,0,.369-.757.8.8,0,0,0-.285-.635,2.156,2.156,0,0,0-1.074-.35l-.467-.064a3.792,3.792,0,0,1-2.065-.823,2.309,2.309,0,0,1-.719-1.819,2.7,2.7,0,0,1,.22-1.107,2.362,2.362,0,0,1,.628-.849,2.925,2.925,0,0,1,.984-.543,4.01,4.01,0,0,1,1.289-.2,5.433,5.433,0,0,1,1.658.247,4.292,4.292,0,0,1,1.333.673.117.117,0,0,1,.026.194l-.79,1.179a.121.121,0,0,1-.181.038,4.337,4.337,0,0,0-1-.505,3.236,3.236,0,0,0-1.042-.168,1.268,1.268,0,0,0-.881.272.89.89,0,0,0-.3.686.766.766,0,0,0,.3.622,2.238,2.238,0,0,0,1.068.349l.466.065a3.721,3.721,0,0,1,2.072.823,2.374,2.374,0,0,1,.7,1.845,2.783,2.783,0,0,1-.22,1.107,2.383,2.383,0,0,1-.654.881,3.114,3.114,0,0,1-1.082.576A4.934,4.934,0,0,1,325.54,221.935Z" fill="#fff"/>
    <path id="Path_428" data-name="Path 428" d="M330.927,213.116a.114.114,0,0,1,.13-.129H332.7a.115.115,0,0,1,.13.129v8.547a.115.115,0,0,1-.13.13h-1.644a.115.115,0,0,1-.13-.13Z" fill="#fff"/>
    <path id="Path_429" data-name="Path 429" d="M337.1,221.793a.114.114,0,0,1-.129-.13v-6.9a.069.069,0,0,0-.078-.078H334.67a.114.114,0,0,1-.13-.129v-1.438a.114.114,0,0,1,.13-.129h6.513a.114.114,0,0,1,.13.129v1.438a.114.114,0,0,1-.13.129h-2.227a.069.069,0,0,0-.078.078v6.9a.114.114,0,0,1-.129.13Z" fill="#fff"/>
    <path id="Path_430" data-name="Path 430" d="M345.03,221.793a.115.115,0,0,1-.13-.13v-3.38l-2.6-5.167c-.035-.086,0-.129.091-.129h1.683a.191.191,0,0,1,.194.129l1.593,3.212h.039l1.593-3.212a.191.191,0,0,1,.194-.129h1.632a.1.1,0,0,1,.091.039.085.085,0,0,1,0,.09l-2.6,5.167v3.38a.115.115,0,0,1-.13.13Z" fill="#fff"/>
  </g>
</svg>
